<svg width="180" height="40" viewBox="0 0 180 40" fill="none" xmlns="http://www.w3.org/2000/svg">
  <path d="M35 20C35 28.2843 28.2843 35 20 35C11.7157 35 5 28.2843 5 20C5 11.7157 11.7157 5 20 5C28.2843 5 35 11.7157 35 20Z" fill="#4F46E5"/>
  <path d="M27 13L17 23L13 19" stroke="white" stroke-width="2.5" stroke-linecap="round" stroke-linejoin="round"/>
  <path d="M46.968 25.8H44.104V14.2H46.968V18.856H51.736V14.2H54.6V25.8H51.736V21.24H46.968V25.8Z" fill="#111827"/>
  <path d="M57.4953 25.8V14.2H60.3593V25.8H57.4953Z" fill="#111827"/>
  <path d="M63.0926 25.8V14.2H65.9566V23.48H71.1406V25.8H63.0926Z" fill="#111827"/>
  <path d="M72.691 25.8V14.2H80.771V16.52H75.555V18.856H80.195V21.176H75.555V23.48H80.771V25.8H72.691Z" fill="#111827"/>
  <path d="M86.6613 25.8H83.7973V14.2H87.8453C88.8666 14.2 89.7386 14.392 90.4613 14.776C91.1839 15.16 91.7359 15.696 92.1173 16.384C92.4986 17.072 92.6893 17.864 92.6893 18.76C92.6893 19.656 92.4986 20.448 92.1173 21.136C91.7359 21.824 91.1839 22.36 90.4613 22.744C89.7386 23.128 88.8666 23.32 87.8453 23.32H86.6613V25.8ZM86.6613 21.064H87.8453C88.4879 21.064 88.9799 20.896 89.3213 20.56C89.6626 20.224 89.8333 19.752 89.8333 19.144V18.376C89.8333 17.768 89.6626 17.296 89.3213 16.96C88.9799 16.624 88.4879 16.456 87.8453 16.456H86.6613V21.064Z" fill="#111827"/>
  <path d="M99.4903 25.8H96.6583L99.5223 14.2H103.194L106.058 25.8H103.226L103.05 24.904H99.6663L99.4903 25.8ZM100.09 22.744H102.626L101.37 17H101.346L100.09 22.744Z" fill="#111827"/>
  <path d="M112.935 26C111.879 26 110.975 25.8 110.223 25.4C109.471 25 108.887 24.424 108.471 23.672C108.055 22.92 107.847 22.024 107.847 20.984V19.016C107.847 17.976 108.055 17.08 108.471 16.328C108.887 15.576 109.471 15 110.223 14.6C110.975 14.2 111.879 14 112.935 14C114.023 14 114.975 14.208 115.791 14.624C116.607 15.04 117.255 15.672 117.735 16.52L115.727 17.864C115.375 17.336 114.959 16.936 114.479 16.664C113.999 16.392 113.471 16.256 112.895 16.256C112.095 16.256 111.479 16.496 111.047 16.976C110.615 17.456 110.399 18.136 110.399 19.016V20.984C110.399 21.864 110.615 22.544 111.047 23.024C111.479 23.504 112.095 23.744 112.895 23.744C113.471 23.744 113.999 23.608 114.479 23.336C114.959 23.064 115.375 22.664 115.727 22.136L117.735 23.48C117.255 24.328 116.607 24.96 115.791 25.376C114.975 25.792 114.023 26 112.935 26Z" fill="#111827"/>
  <path d="M124.029 25.8H121.165V16.52H118.301V14.2H126.893V16.52H124.029V25.8Z" fill="#111827"/>
  <path d="M132.432 25.8H129.568V14.2H132.432V18.856H137.2V14.2H140.064V25.8H137.2V21.24H132.432V25.8Z" fill="#111827"/>
</svg>
